<svg width="500" height="879" viewBox="0 0 500 879" fill="none" xmlns="http://www.w3.org/2000/svg">
<path d="M125 145.833C125 76.7976 180.964 20.8333 250 20.8333C319.035 20.8333 375 76.7976 375 145.833C375 151.295 374.648 156.681 373.967 161.97C411.875 183.419 437.5 224.115 437.5 270.833C437.5 339.869 381.535 395.833 312.5 395.833H270.833V458.333H229.167V395.833H177.083C113.801 395.833 62.5 344.533 62.5 281.25C62.5 235.131 89.7317 195.41 128.979 177.23C126.382 167.198 125 156.675 125 145.833ZM146.034 215.248C121.287 226.912 104.167 252.1 104.167 281.25C104.167 321.521 136.813 354.167 177.083 354.167H312.5C358.523 354.167 395.833 316.856 395.833 270.833C395.833 235.533 373.877 205.31 342.8 193.174L325.269 186.327C328.973 172.987 333.333 159.83 333.333 145.833C333.333 99.8095 296.023 62.4999 250 62.4999C203.976 62.4999 166.667 99.8095 166.667 145.833C166.667 173.08 179.721 197.271 200.004 212.51L174.976 245.823C163.701 237.352 153.899 227.006 146.034 215.248Z" fill="#178C99"/>
<path d="M416.667 504H479.167V545.667H458.333V774.833H479.167V816.5H20.8334V774.833H41.6667V545.667H20.8334V504H83.3334V462.333C83.3334 450.828 92.6609 441.5 104.167 441.5H395.833C407.34 441.5 416.667 450.828 416.667 462.333V504ZM416.667 545.667H83.3334V774.833H145.833V629H187.5V774.833H229.167V629H270.833V774.833H312.5V629H354.167V774.833H416.667V545.667ZM125 483.167V504H375V483.167H125Z" fill="#178C99"/>
</svg>
